<svg xmlns="http://www.w3.org/2000/svg" width="40" height="40" fill="none"><path fill="#fff" d="M17.705.098a15.719 15.719 0 0 0-7.621 3.013 15.183 15.183 0 0 0-4.972 6.393 14.804 14.804 0 0 0-.925 7.975 14.971 14.971 0 0 0 3.382 7.316L18.267 39.37c.145.195.335.354.555.463a1.592 1.592 0 0 0 1.975-.463l10.932-14.422a15.139 15.139 0 0 0 3.264-9.833 14.848 14.848 0 0 0-1.369-6.183 15.181 15.181 0 0 0-3.835-5.1A15.625 15.625 0 0 0 24.155.708a15.884 15.884 0 0 0-6.45-.609ZM20.5 20.466a6.19 6.19 0 0 1-3.704-.56 5.99 5.99 0 0 1-2.658-2.58 5.791 5.791 0 0 1-.596-3.612 5.866 5.866 0 0 1 1.696-3.263 6.113 6.113 0 0 1 3.338-1.665 6.19 6.19 0 0 1 3.702.57 5.989 5.989 0 0 1 2.65 2.587 5.79 5.79 0 0 1 .585 3.614 5.866 5.866 0 0 1-1.693 3.246 6.112 6.112 0 0 1-3.32 1.663Z"/></svg>