<svg xmlns="http://www.w3.org/2000/svg" fill="rgba(0, 0, 0, 0.5)" viewBox="0 0 24 20"><path d="M8 1.7c.2.1.2.2.4.3h.2c.2.2.4.5.7.7v1.4c0 .1-.1.1-.2.2 0 .2.2.2.3.3v.6c0 .1-.1.1-.1.2v2.2c0 .2-.1.5 0 .7 0 .1.2.2.3.3 0 .1.1.3.1.5v2.5c0 .1-.1.1-.1.2-.1.3.1.7 0 .9 0 .1.1.1.1.2v.8l-.2.2-.1.2c0 .1.2.2.1.5 0 .1 0 .1-.1.2 0 .2.1.4 0 .6 0 .1-.1.1-.2.2-.1.2.1.6 0 .9 0 .1-.1.1-.1.2s.2.3.1.5h1c.1 0 .1-.1.2-.2s.2-.2.3-.2c.1 0 .3 0 .5.1.3.1.9.2 1.2 0 .1 0 .1-.1.2-.2.2-.1.6-.1.9-.1 1.2-.1 2.7 0 3.9 0v1.8c0 .3.3.4.3.6h-1.9c-.1 0-.1-.1-.2-.2-.3 0-.5 0-.6-.2-.2 0-.3-.1-.4-.2h-.7c-.4 0-.8.1-.9-.2H9.5c-.1-.2-.5-.4-.8-.3-.1 0-.2.1-.4.2-.1.2-.3.2-.3.3-.1.1-.2.2-.2.3-.4-.1-.9-.2-1.3 0-.1 0-.1-.2-.2-.2 0-.1.2-.2.2-.3.2-.2.5-.4.8-.7v-.6c0-.1.1-.1.2-.2 0-.1-.1-.1-.2-.2.1-.4-.1-.7 0-1 0-.1.1-.1.2-.2v-.4c0-.1.1-.1.1-.2 0-.3-.2-.4-.3-.5v-1.9c0-.1.1-.1.2-.2 0-.3-.1-.7 0-1 0-.1.1-.1.1-.2V9.5c0-.2.2-.2.2-.4s-.1-.2-.2-.3v-2c0-.1-.1-.1-.1-.2v-1c0-.2.2-.2.3-.3 0-.4.2-1-.2-1.1 0-.2.2-.4.2-.7 0-.3-.2-.6-.3-.9h-.4c0-.2-.2-.4-.4-.5 0-.1-.3-.2-.3-.3 0 0 .2-.2.2-.3v-.1h.2c.1 0 .1.1.2.2.3.1.7.1 1 .1zM23.5 1.9c0 .1-.1.2-.1.4-.1.3-.2.6-.5.9 0 .3 0 .5-.1.7-.1.1-.3.2-.3.4v.3c0 .2-.2.3-.3.4-.1.4-.1.9-.2 1.2-.1.1-.2.3-.2.4v1.5c0 .1-.1.1-.1.2-.1.2-.1.4-.2.6-.1.2-.1.4-.3.5v.5c-.1.2-.4.3-.4.6v1.6c0 .2-.1.4-.2.6-.1.2-.2.4-.2.6v.7c0 .5-.3.8-.5 1.2 0 .4-.2.6-.2.9.1.1.1-.1.2-.1.2.2.5 0 .8 0 .1-.2.1-.3.2-.5s.5-.2.7-.3c.1 0 .3-.2.4-.2.4-.2.7-.3.9-.7.1 0 .1.2.2.2.2.1.5-.1.6 0 .1 0 .3.3.3.4 0 .1-.1.2-.1.3v.3c0 .1.1.2.1.3V17.1c0 .1-.2.2-.2.3h-2.1c-.1 0-.1-.1-.2-.2-.2 0-.4-.1-.6-.1-.2 0-.3.3-.5.3-.4.1-.8 0-1.2 0-.3 0-.5.3-.8.3-.1-.1-.1-.3-.1-.6v-.5c0-.1.2-.2.2-.3 0-.1 0-.3-.1-.4.1-.1.2-.1.3-.3v-.5c.1-.1.2-.1.2-.2v-.4c0-.1.1-.2.1-.3 0-.1.1-.3.1-.4 0-.2 0-.4-.1-.6 0-.1-.1-.2-.2-.3-.1-.3-.1-.8-.1-1.2 0-.4 0-.8.1-1.2 0-.2.1-.4.2-.6.2-.5.4-1.1.6-1.6 0-.1-.1-.1-.1-.3 0-.2.1-.3.2-.4.1-.1 0-.3 0-.4 0-.1.1-.3.2-.4.1-.2.2-.3.2-.5v-.5c0-.2.1-.3.2-.5.3-.3.5-.7.7-1l.2-.2v-.4c0-.1.1-.1.1-.2-.2-.2-.5 0-.8-.1-.1 0-.1-.2-.2-.2H20c-.1 0-.2 0-.3.1-.2.1-.3.7-.4 1-.1.4-.1.9-.4 1.1-.2.1-.3 0-.4.2-.1-.1-.2-.2-.3-.2 0-.1.1-.2.1-.3 0-.2-.1-.3-.1-.4 0-.1.2-.2.2-.3V1.9h4.8c.1 0 .1.1.1.2.1-.3.2-.3.2-.2z" class="st0"/><path d="M9.8 1.9c.8.1 1.9.1 2.6 0 .1.1.3.2.2.5-.3.1-.8.3-.7.7 0 .1.2.2.2.4s-.2.2-.2.4v.8c0 .9.1 1.8 0 2.7v.4c0 .1 0 .1.1.2 0 .2 0 .4.1.7-.1.1-.2.2-.3.4 0 .2 0 .8.1 1v.3c0 .1 0 .1.1.2v.5c0 .1-.2.2-.3.3 0 .1 0 .3.1.5 0 .2 0 .3.1.5 0 .1.1.2.1.3 0 .1.1.2.1.3v1c0 .1-.2.2-.2.3 0 .1.1.5.2.6.1.1.3.2.5.3.2.1.3.2.4.3 0 .2 0 .3.1.5-.2-.1-.5-.1-.7 0-.3-.1-.6-.1-1-.1-.2 0-.4 0-.6.1-.1.1-.2.3-.4.3s-.2-.2-.3-.2c.2-.2.4-.5.7-.7.1-.4.1-.9.1-1.4v-.5c0-.1.1-.1.1-.2s-.1-.2-.1-.4v-.5c0-.1.1-.2.1-.3V6.2c0-.1 0-.1.1-.2 0-.1-.1 0-.1-.1-.3-.9-.3-1.9-.4-2.8v-.4c-.1-.3-.5-.1-.6-.4h-.2l-.2-.2c0-.1.1-.1.2-.2z" class="st0"/><path d="M13.4 1.9c1.4-.1 2.8 0 4.2 0v.8c0 .1.1.2.1.3V5.6c0 .1-.1.1-.2.2-.1.2 0 .5 0 .7-.5.4-.6 1.2-.9 1.8v.6c-.4.2-.9.4-.7 1.2 0 .1-.1.1-.2.2-.2.2-.4.7-.6 1-.1.2-.2.4-.2.6-.1.2-.2.4-.2.6v.4c0 .1-.1.4-.2.5-.2.5-.3.9-.5 1.3 0 .1-.1.2-.1.2.2.1.3 0 .5-.1.1-.1.3-.2.4-.2h.3c.1 0 .2 0 .3-.1.1-.1.2-.3.3-.4.2-.3.5-.7.9-.8.1-.3.1-.5.3-.6.1 0 .1.1.1.2.3-.1.3-.5.5-.7h.4c0 .3 0 .7.1.9 0 .1-.1.1-.2.1 0 0 0 .1-.1.2 0 .1-.1.1-.1.2-.1.6 0 1.4 0 2-.3 0-.5.1-.6.3h-1.5c-.1 0-.1-.1-.2-.2H15c-.2.1-.2.3-.4.3s-.4-.1-.5-.2h-1c-.1-.1-.2-.2-.2-.3 0-.1.1-.2.2-.3 0-.3-.1-.6 0-.8 0-.1.1-.1.1-.2 0-.2-.2-.5-.3-.6.1-.1.1-.2.1-.3 0-.1-.1-.2-.1-.3-.1-.3 0-.6.1-.9 0-.2 0-.4.1-.5 0-.1.1-.2.1-.2.1-.2 0-.4.1-.6.1-.3.4-.5.5-.8.1-.5.3-.9.6-1.2.1-.4.2-.9.3-1.3.1-.3.2-.5.5-.6.1-.3.4-.5.6-.7.2-.6.2-.9.3-1.2.1-.1.2-.1.2-.2.3-.3.5-.7.7-1v-.9h-1.5c-.1 0-.3.1-.4.2-.3.2-.5.4-.5.9-.3 0-.4.1-.6.3 0 .4.1.8 0 1.2 0 .1-.1.2-.2.3.2.1.1.2 0 .3-.1-.1-.2-.2-.2-.4 0-.1-.1-.1-.2-.2 0-.2-.1-.6-.1-.7.1-.3.2-.6.1-.9-.1-.1-.2-.2-.2-.3.1-.4-.1-.9 0-1.3.1-.2.2-.3.2-.4zM5.1 7.3c.1.1.2.2.3.2.1 0 .4 0 .4.1.2.3-.2.6-.1.8.1.1.1 0 .2 0 .1.1.2.4.4.5-.1.5-.2 1.2 0 1.6.1.2.2.2.3.3-.2.8.2 1.9-.1 2.6 0 .1-.2.2-.2.3 0 .1 0 .3.1.4.1.3.1.6 0 .9 0 .1-.1.3-.2.4-.1.3-.3.5-.4.7-.1.3-.1.6-.2 1-.4.2-.8.4-1.1.6-.2.3-.4.4-.5.6-.4.1-.8.1-1.1.3-.1 0-.2-.2-.3-.2-.1 0-.2.2-.3.2h-.4c-.3 0-.5 0-.8-.1-.1.1-.3 0-.5 0H.5l-.1.1c-.1 0-.2-.2-.3-.3.2-.1.4-.1.5-.3.1-.4.3-.8.3-1.2v-.5c0-.3.1-.7.1-1.1 0-.7-.1-1.3-.2-2 0-.9.1-1.8 0-2.7 0-.1.2-.1.2-.1v-.7c0-.1-.1-.2-.1-.2v-1c0-.1.1-.2.2-.3.1-.3 0-.5-.2-.7V4.9c0-.3-.1-.6 0-.9 0-.1.1-.1.2-.2v-.4c-.1-.1-.2 0-.3 0-.1 0 0-.1-.1-.2-.1-.2-.4-.3-.5-.5-.1 0-.1-.1-.2-.2v-.3c0-.1.2-.2.2-.2h.7c.1 0 .3-.1.4-.1.7-.2 1.7-.1 2.6-.2h.9c.1.1.1.2.2.3 0 .1.2.1.3.2.5 0 .7.3.9.6.1.2.3.5.3.8v.6c0 .3.1.5 0 .8 0 .1-.1.2-.2.3-.4.7-.8 1.6-1.2 2zM3.3 3.9c0 .1-.1.1-.1.2v2.6h.3c.2-.1.2-.3.3-.5.1-.2.4-.3.7-.4 0-.4-.1-.9.1-1.2-.1-.1-.1-.2-.1-.4 0-.1.2-.1.2-.2h-.4c-.1-.1-.2-.3-.3-.3-.2-.1-.4.1-.6 0 0 0 .1-.1 0-.1 0 .1-.1.2-.1.3zm-.1 5.9c0 .1-.1.1-.1.2-.1.3.1.6.1.9 0 .2-.1.4-.1.7-.1 0-.2.1-.2.2s.1.1.2.2v2.6c-.1.1-.2.2-.2.4v1.1c0 .2 0 .4.1.5-.1.2-.2.3-.2.5.4 0 .5-.3.8-.4.1-.4.2-.6.4-.7l.2-.2c.2-.3 0-.7.1-1.1.2-.3.3-.8.3-1.3 0-.1-.1-.1-.1-.1.2-.1.1-.3 0-.5s-.1-.3-.1-.5c0-.1.1-.1.2-.2.1-.3-.1-.4-.2-.5-.1-.3.1-.6.1-.9 0-.1-.1-.1-.1-.1.2-.2-.1-.5-.1-.6h.1c-.1-.2-.1-.3-.1-.4 0-.1.1-.1.1-.2-.2-.1-.3-.2-.5-.4-.2-.1-.5-.4-.7-.6 0 .5.1.9 0 1.4z" class="st0"/></svg>