<svg xmlns="http://www.w3.org/2000/svg" fill="#FFFFFFB3" stroke="currentColor" stroke-linecap="round" stroke-linejoin="round" stroke-width="0" aria-labelledby="blz-icon-title-instagram" viewBox="0 0 48 48"><path stroke="none" d="M24 6c-4.889 0-5.502.02-7.421.108-1.916.088-3.225.392-4.37.837A8.823 8.823 0 0 0 9.021 9.02c-1 1-1.616 2.005-2.076 3.188-.445 1.145-.75 2.454-.837 4.37C6.021 18.499 6 19.11 6 24s.02 5.502.108 7.421c.088 1.916.392 3.225.837 4.37a8.824 8.824 0 0 0 2.076 3.188c1 1 2.005 1.616 3.188 2.076 1.145.445 2.454.75 4.37.837 1.92.087 2.532.108 7.421.108s5.502-.02 7.421-.108c1.916-.088 3.225-.392 4.37-.837a8.824 8.824 0 0 0 3.188-2.076c1-1 1.616-2.005 2.076-3.188.445-1.145.75-2.454.837-4.37.087-1.92.108-2.532.108-7.421s-.02-5.502-.108-7.421c-.088-1.916-.392-3.225-.837-4.37a8.824 8.824 0 0 0-2.076-3.188c-1-1-2.005-1.616-3.188-2.076-1.145-.445-2.454-.75-4.37-.837C29.501 6.021 28.89 6 24 6Zm0 3.243c4.806 0 5.375.019 7.273.105 1.756.08 2.709.373 3.343.62.84.326 1.44.717 2.07 1.346.63.63 1.02 1.23 1.346 2.07.247.634.54 1.588.62 3.343.086 1.898.105 2.467.105 7.273 0 4.806-.019 5.375-.105 7.273-.08 1.756-.373 2.709-.62 3.343a5.575 5.575 0 0 1-1.346 2.07c-.63.63-1.23 1.02-2.07 1.346-.634.247-1.587.54-3.343.62-1.897.086-2.466.105-7.273.105-4.807 0-5.376-.019-7.273-.105-1.755-.08-2.709-.373-3.343-.62a5.574 5.574 0 0 1-2.07-1.346 5.576 5.576 0 0 1-1.346-2.07c-.247-.634-.54-1.587-.62-3.343-.086-1.898-.105-2.467-.105-7.273 0-4.806.019-5.375.105-7.273.08-1.755.373-2.709.62-3.343.326-.84.717-1.44 1.346-2.07.63-.63 1.23-1.02 2.07-1.346.634-.247 1.588-.54 3.343-.62 1.898-.086 2.467-.105 7.273-.105Z"/><path stroke="none" d="M24 30a6 6 0 1 1 0-12 6 6 0 0 1 0 12Zm0-15.243a9.243 9.243 0 1 0 0 18.486 9.243 9.243 0 1 0 0-18.486ZM35.769 14.392a2.16 2.16 0 1 1-4.32 0 2.16 2.16 0 0 1 4.32 0Z"/></svg>