<svg xmlns="http://www.w3.org/2000/svg" width="147" height="32" fill="#FFFFFFB3"><path d="M4.983 9.6a3.008 3.008 0 1 0 6.016 0 3.008 3.008 0 0 0-6.016 0ZM23.795 0h-4.952a.209.209 0 0 0-.208.207v31.559c0 .13.104.234.234.234h4.926A8.206 8.206 0 0 0 32 23.795V8.205C32.003 3.675 28.33 0 23.795 0Zm1.175 20.837a3.236 3.236 0 1 1 0-6.472 3.236 3.236 0 0 1 0 6.472ZM15.199 0H8.205A8.206 8.206 0 0 0 0 8.205v15.59A8.206 8.206 0 0 0 8.205 32h6.994c.13 0 .234-.104.234-.234V.234A.23.23 0 0 0 15.199 0Zm-2.343 29.423H8.205a5.6 5.6 0 0 1-3.979-1.646 5.58 5.58 0 0 1-1.646-3.979V8.205a5.6 5.6 0 0 1 1.646-3.979A5.586 5.586 0 0 1 8.205 2.58h4.648v26.843h.003ZM65.583 3.667l4.46 6.007h1.774V.693h-1.824v5.9l-4.417-5.9h-1.814v8.98h1.82V3.668Zm-18.384 17.25c-2.45-.401-4.03-.856-4.03-1.994 0-1.318 1.76-1.824 4.123-1.824 2.195 0 4.4.837 5.187 1.168l1.205-2.935c-.854-.338-3.56-1.305-6.562-1.305-3.661 0-7.553 1.787-7.553 5.093 0 2.684 1.894 4.056 6.75 4.89 3.423.588 5.31.913 5.256 2.385-.03.81-.655 2.172-4.517 2.172-3.105 0-5.294-1.125-6.053-1.583l-1.603 2.894c.853.449 3.724 1.794 7.412 1.794 5.39 0 8.242-1.867 8.242-5.4-.004-2.045-.693-4.177-7.857-5.355Zm-5.214-17.25 4.46 6.007h1.774V.693h-1.824v5.9l-4.417-5.9h-1.813v8.98h1.82V3.668ZM74.1 26.56l-3.59-12.294H67.5l-3.57 12.25-3.26-12.25h-3.687l4.795 16.945h4.072l3.16-11.163 3.138 11.163h4.09l4.821-16.945h-3.688L74.1 26.559ZM56.986.693H54.99v8.98h1.997V.694ZM85.27 31.21h3.77V14.265h-3.77V31.21ZM141.395.392a4.792 4.792 0 0 0 0 9.584c2.637 0 4.782-2.153 4.782-4.793a4.788 4.788 0 0 0-4.782-4.791Zm0 7.585a2.797 2.797 0 0 1-2.791-2.797 2.794 2.794 0 0 1 2.791-2.794 2.797 2.797 0 0 1 0 5.591Zm.612 12.967h-7.914v-6.679h-3.503V31.21h3.503v-6.76h7.914v6.76h3.507V14.265h-3.507v6.68ZM126.186.693h-3.714v8.98h3.714c2.547 0 4.618-2.013 4.618-4.49 0-2.476-2.071-4.49-4.618-4.49Zm.091 7.094h-1.961V2.58h1.961a2.606 2.606 0 0 1 2.603 2.603 2.606 2.606 0 0 1-2.603 2.604Zm-6.971 9.694c1.915 0 3.698 1.02 4.652 2.63l2.757-2.396a9.005 9.005 0 0 0-7.509-4.002c-4.986 0-9.045 4.056-9.045 9.045 0 4.986 4.059 9.045 9.045 9.045a8.996 8.996 0 0 0 7.509-4.003l-2.757-2.399c-.954 1.61-2.741 2.63-4.652 2.63-2.964 0-5.374-2.365-5.374-5.277 0-2.908 2.41-5.273 5.374-5.273ZM99.38 8.01h-5.16V5.906h4.772V4.283H94.22v-1.94h5.16V.692l-6.984.003v8.978l6.984-.003V8.01Zm-6.208 9.851h5.415V31.21h3.644V17.862h5.293v-3.597H93.172v3.597ZM85.821.692h-7.606V2.6h2.87v7.074h1.932V2.6h2.804V.693Zm29.055 8.982V.693h-1.824v5.9l-4.417-5.9h-1.813v8.98h1.82V3.668l4.461 6.007h1.773Z"/></svg>