<svg xmlns="http://www.w3.org/2000/svg" fill="#FFFFFFB3" stroke="currentColor" stroke-linecap="round" stroke-linejoin="round" stroke-width="0" aria-labelledby="blz-icon-title-playstation-5-logo" viewBox="0 0 142 32"><path stroke="none" d="M15.495 0v29.859L22.257 32V6.965c0-1.178.527-1.964 1.37-1.693 1.103.305 1.317 1.392 1.317 2.559v9.998c4.207 2.035 7.522 0 7.522-5.377 0-5.49-1.942-7.936-7.657-9.904C22.555 1.798 18.374.53 15.495 0Z"/><path stroke="none" d="m23.544 27.635 10.86-3.865c1.227-.455 1.415-1.072.421-1.4-1.008-.33-2.81-.236-4.052.211l-7.225 2.552V21.06l.414-.135s2.092-.742 5.035-1.061c2.935-.324 6.536.041 9.37 1.11 3.187 1.012 3.544 2.49 2.739 3.518-.817 1.016-2.804 1.754-2.804 1.754l-14.75 5.298v-3.91h-.008ZM3.112 27.225c-3.27-.91-3.816-2.834-2.322-3.947 1.377-1.016 3.718-1.78 3.718-1.78l9.685-3.455v3.929l-6.965 2.495c-1.234.44-1.418 1.06-.425 1.388 1.012.339 2.807.248 4.041-.207l3.35-1.208v3.507c-.215.038-.456.072-.674.11-3.342.556-6.898.33-10.408-.832ZM91.119 25.6a5.16 5.16 0 0 0 5.163-5.16v-8.88a3.11 3.11 0 0 1 3.112-3.112h10.013c.075 0 .135-.06.135-.136V6.536a.135.135 0 0 0-.135-.135H97.339a5.161 5.161 0 0 0-5.163 5.162v8.881a3.11 3.11 0 0 1-3.112 3.112H79.19a.135.135 0 0 0-.135.135v1.777c0 .075.06.135.135.135H91.12v-.004ZM113.685 13.61V6.537c0-.075.06-.135.136-.135h27.266c.075 0 .135.06.135.135v1.776c0 .076-.06.136-.135.136h-23.165a.135.135 0 0 0-.135.135v4.61c0 .816.662 1.475 1.475 1.475h17.245a5.463 5.463 0 1 1 0 10.928h-22.686a.135.135 0 0 1-.136-.136v-1.776c0-.075.06-.136.136-.136h20.635a3.412 3.412 0 0 0 3.413-3.401c.008-1.885-1.554-3.428-3.439-3.428h-17.637a3.104 3.104 0 0 1-3.108-3.109ZM73.189 14.672A3.11 3.11 0 0 0 76.3 11.56a3.11 3.11 0 0 0-3.112-3.112H52.27a.135.135 0 0 1-.136-.136V6.536c0-.075.06-.135.136-.135h22.968a5.162 5.162 0 0 1 5.163 5.162 5.162 5.162 0 0 1-5.163 5.163H59.345a3.113 3.113 0 0 0-3.112 3.112v5.63c0 .075-.06.135-.136.135H52.27a.135.135 0 0 1-.135-.135v-5.634a5.161 5.161 0 0 1 5.163-5.162h15.89Z"/></svg>