<svg xmlns="http://www.w3.org/2000/svg" fill="#FFFFFFB3" stroke="currentColor" stroke-linecap="round" stroke-linejoin="round" stroke-width="0" aria-labelledby="blz-icon-title-twitter" viewBox="0 0 48 48"><path stroke="none" d="M16.58 40.502c15.094 0 23.35-12.506 23.35-23.35 0-.355 0-.71-.024-1.061A16.699 16.699 0 0 0 44 11.843a16.381 16.381 0 0 1-4.714 1.291 8.235 8.235 0 0 0 3.608-4.54 16.447 16.447 0 0 1-5.21 1.993 8.214 8.214 0 0 0-13.986 7.485A23.3 23.3 0 0 1 6.784 9.497a8.213 8.213 0 0 0 2.54 10.956A8.145 8.145 0 0 1 5.6 19.425v.104a8.21 8.21 0 0 0 6.584 8.045 8.193 8.193 0 0 1-3.706.14 8.217 8.217 0 0 0 7.668 5.7A16.467 16.467 0 0 1 4 36.816a23.234 23.234 0 0 0 12.58 3.68"/></svg>